PathFileType	4	(X/Y/Z)	./resultDataOpenSim/trcMotMarkerGrf/sub06/qtm-12-08.trc
DataRate	CameraRate	NumFrames	NumMarkers	Units	OrigDataRate	OrigDataStartFrame	OrigNumFrames
250.000000	250.000000	6	24	m	250.000000	325	519
Frame#	Time	L.Toe.Tip			R.Toe.Tip			L.Ankle.Lat			R.Ankle.Lat			L.Ankle.Med			R.Ankle.Med			L.Heel			R.Heel			L.Knee.Lat			R.Knee.Lat			L.Knee.Med			R.Knee.Med			L.Thigh.Upper			R.Thigh.Upper			L.ASIS			R.ASIS			V.Sacral			L.Acromium			R.Acromium			C7			L.Elbow			R.Elbow			L.Wrist.Lat			R.Wrist.Lat
		X1	Y1	Z1	X2	Y2	Z2	X3	Y3	Z3	X4	Y4	Z4	X5	Y5	Z5	X6	Y6	Z6	X7	Y7	Z7	X8	Y8	Z8	X9	Y9	Z9	X10	Y10	Z10	X11	Y11	Z11	X12	Y12	Z12	X13	Y13	Z13	X14	Y14	Z14	X15	Y15	Z15	X16	Y16	Z16	X17	Y17	Z17	X18	Y18	Z18	X19	Y19	Z19	X20	Y20	Z20	X21	Y21	Z21	X22	Y22	Z22	X23	Y23	Z23	X24	Y24	Z24

325	1.296	0.49701788	0.093701484	-0.063991324	0.87874995	0.035421563	0.10391934	0.47375437	0.21969817	-0.08988446	0.74289322	0.061567378	0.1326776	0.4956032	0.22787752	-0.0081539786	0.75905183	0.081235214	0.044514593	0.41901887	0.2691489	-0.038483175	0.68536303	0.040776552	0.077189057	0.79977287	0.40358007	-0.12585923	0.8354439	0.4412095	0.15559345	0.80736451	0.39331015	-0.002942801	0.79260241	0.43200596	0.033172604	0.71300149	0.79053879	-0.12211881	0.74799174	0.80771247	0.21880153	0.79166457	0.84381349	-0.091962574	0.82718883	0.86410817	0.15307669	0.62423023	0.92569868	0.059010538	0.73209169	1.3394925	-0.14151946	0.73911415	1.3167037	0.22081177	0.66018724	1.366257	0.041219179	0.71737792	1.0136102	-0.19831191	0.65529869	1.0090104	0.2835973	0.90998216	0.85946929	-0.18264779	0.80311283	0.8188939	0.32523515
326	1.3	0.51294861	0.093942061	-0.064271248	0.87876359	0.035419553	0.10391336	0.48741717	0.21952377	-0.089706104	0.74301999	0.061685612	0.1326822	0.50959849	0.22759907	-0.0079446652	0.75907986	0.081439403	0.044581083	0.43211161	0.26793004	-0.038028158	0.68536622	0.041001545	0.07723496	0.81151424	0.40640402	-0.12621678	0.83670227	0.4411671	0.15564716	0.81908742	0.39609864	-0.0030871609	0.79389316	0.43209503	0.033304781	0.71985273	0.79238238	-0.12193853	0.75356117	0.80863709	0.21897143	0.79822218	0.8454621	-0.091207941	0.83276049	0.86549043	0.15368991	0.62998301	0.92692633	0.058836689	0.73763762	1.3409267	-0.14147742	0.74543944	1.3184922	0.22071683	0.66605222	1.3676561	0.041355261	0.72092661	1.0154847	-0.19770975	0.66351572	1.0102158	0.28436572	0.91084907	0.85805023	-0.18394353	0.81479918	0.82226957	0.32464124
327	1.304	0.52899669	0.093981505	-0.064546986	0.87878952	0.035415797	0.10391096	0.50116382	0.21912806	-0.089562098	0.74318268	0.061813	0.13266978	0.52375564	0.22708813	-0.0076948379	0.75913275	0.081643484	0.044638527	0.44524198	0.26643511	-0.037563096	0.68536771	0.041227546	0.077292071	0.82319886	0.40925644	-0.12653895	0.83784583	0.4411404	0.15560456	0.83080257	0.39891817	-0.0032828981	0.79451895	0.43219214	0.033308985	0.72670204	0.79420835	-0.12177412	0.75923401	0.80953642	0.21902573	0.80481178	0.84710304	-0.090501052	0.83833565	0.86683172	0.15427594	0.63564581	0.92811308	0.05873416	0.74318946	1.3423062	-0.14143852	0.75176557	1.320244	0.22061622	0.67193697	1.3689968	0.041480543	0.72445405	1.0173304	-0.19716562	0.67171977	1.0114118	0.2851446	0.91163453	0.85670985	-0.18524969	0.82640935	0.82569064	0.32399155
328	1.308	0.54519356	0.093826973	-0.064870604	0.8788281	0.035411187	0.10391069	0.51501056	0.21849021	-0.089416823	0.7433269	0.061958595	0.13266361	0.53799235	0.22638813	-0.0074605755	0.75921571	0.081844011	0.044678286	0.45840274	0.2646603	-0.037089163	0.68540205	0.041466548	0.077315955	0.83482741	0.41213518	-0.12682036	0.83906606	0.44115809	0.15565892	0.84254914	0.40176929	-0.0035519431	0.79428478	0.43237853	0.033195291	0.7334881	0.79601294	-0.12182929	0.76470677	0.81036484	0.21901852	0.81137083	0.8487609	-0.089970711	0.84390903	0.86812082	0.15483424	0.6412876	0.92926919	0.05862681	0.74874796	1.3436231	-0.14139559	0.75809337	1.3219526	0.22051244	0.67783552	1.3702855	0.041596908	0.72796696	1.0191338	-0.19667906	0.67996344	1.0126034	0.28595272	0.91234739	0.85545075	-0.18655862	0.83793245	0.8291545	0.32328057
329	1.312	0.56160288	0.093509019	-0.065291032	0.87887716	0.035407636	0.10391117	0.52895713	0.21761225	-0.089249336	0.74340377	0.062148731	0.13269222	0.55220283	0.22551729	-0.0072555776	0.75932462	0.08204517	0.04470314	0.4716364	0.26259706	-0.036632181	0.68547678	0.041730545	0.077298081	0.84640949	0.41502785	-0.1270488	0.84039723	0.44120781	0.15585735	0.85431945	0.40469065	-0.0038449021	0.79390806	0.43265264	0.033048964	0.74015558	0.79780422	-0.12220739	0.7697464	0.81110767	0.21901563	0.81788041	0.85048004	-0.08955852	0.84948049	0.8693479	0.15536626	0.64695475	0.93038432	0.058516117	0.75431141	1.3448797	-0.1413502	0.76442399	1.3236144	0.22040929	0.6837345	1.3715255	0.0417089	0.73146002	1.0208911	-0.19624454	0.68829476	1.0137939	0.2868041	0.91299888	0.85424584	-0.18787406	0.84938793	0.83266896	0.32253042
330	1.316	0.57830611	0.093070887	-0.065839229	0.87893038	0.035405393	0.10391276	0.54300048	0.21651308	-0.089074732	0.74342125	0.06239731	0.13275876	0.56638961	0.22445727	-0.0070674418	0.75944491	0.082257011	0.044729106	0.48496519	0.26024806	-0.036189273	0.68559121	0.042027381	0.077235824	0.85794975	0.41792174	-0.12721937	0.84168587	0.44123802	0.15605745	0.86609409	0.40770854	-0.0040791667	0.79422721	0.43298347	0.032952593	0.7467648	0.79960265	-0.1228007	0.77448834	0.81180141	0.21904069	0.82434202	0.85228062	-0.089175171	0.8550521	0.87050194	0.15587424	0.65270813	0.93144103	0.058497545	0.75988137	1.3460768	-0.1413116	0.77075701	1.3252264	0.22030792	0.68962643	1.3727094	0.04182176	0.73492195	1.0225991	-0.19585357	0.6966771	1.0149715	0.28767654	0.91360165	0.85306607	-0.18919713	0.86080851	0.83623475	0.32177469
